[aist#0:0/pcm_s16le @ 0x5ab9d734e280] Guessed Channel Layout: mono
Input #0, wav, from 'logs/e2e-all-features-20260717/physical-listener-native-stereo-gain050-probe/c920-downmixed-mono-16k.wav':
  Metadata:
    encoder         : Lavf60.16.100
  Duration: 00:00:12.46, bitrate: 256 kb/s
  Stream #0:0: Audio: pcm_s16le ([1][0][0][0] / 0x0001), 16000 Hz, 1 channels, s16, 256 kb/s
[Parsed_volumedetect_0 @ 0x5ab9d734fbc0] n_samples: 0
Stream mapping:
  Stream #0:0 -> #0:0 (pcm_s16le (native) -> pcm_s16le (native))
Press [q] to stop, [?] for help
Output #0, null, to 'pipe:':
  Metadata:
    encoder         : Lavf60.16.100
  Stream #0:0: Audio: pcm_s16le, 16000 Hz, mono, s16, 256 kb/s
    Metadata:
      encoder         : Lavc60.31.102 pcm_s16le
[out#0/null @ 0x5ab9d7329a00] video:0kB audio:389kB subtitle:0kB other streams:0kB global headers:0kB muxing overhead: unknown
size=N/A time=00:00:12.41 bitrate=N/A speed= 786x    
[Parsed_volumedetect_0 @ 0x5ab9d7354ac0] n_samples: 199339
[Parsed_volumedetect_0 @ 0x5ab9d7354ac0] mean_volume: -23.5 dB
[Parsed_volumedetect_0 @ 0x5ab9d7354ac0] max_volume: -4.4 dB
[Parsed_volumedetect_0 @ 0x5ab9d7354ac0] histogram_4db: 3
[Parsed_volumedetect_0 @ 0x5ab9d7354ac0] histogram_5db: 38
[Parsed_volumedetect_0 @ 0x5ab9d7354ac0] histogram_6db: 114
[Parsed_volumedetect_0 @ 0x5ab9d7354ac0] histogram_7db: 223
